<?xml version="1.0"?>

<svg xmlns="http://www.w3.org/2000/svg" id="DISEÑO" viewBox="0 0 107.87 108" width="107.87000274658203" height="108"><defs></defs><path fill="#45625D" d="M89.58,55.26H66.21L82.74,38.73a5.09,5.09,0,0,0,0-7.19h0a5.09,5.09,0,0,0-7.19,0L59,48.07V24.7a5.09,5.09,0,0,0-5.08-5.09h0a5.09,5.09,0,0,0-5.09,5.09V48.07L32.32,31.54a5.09,5.09,0,0,0-7.19,0h0a5.09,5.09,0,0,0,0,7.19L41.66,55.26H18.29a5.09,5.09,0,0,0-5.09,5.08h0a5.09,5.09,0,0,0,5.09,5.09H89.58a5.09,5.09,0,0,0,5.09-5.09h0A5.09,5.09,0,0,0,89.58,55.26Z"></path><path fill="#6AA5A9" d="M59,96V72.61L75.55,89.14a5.08,5.08,0,0,0,7.19,0h0a5.08,5.08,0,0,0,0-7.18L61.12,60.34,59,58.24h0a7.19,7.19,0,0,0-10.17,0h0l-2.1,2.1L25.13,82a5.08,5.08,0,0,0,7.19,7.18L48.85,72.61V96a5.08,5.08,0,0,0,5.09,5.08h0A5.08,5.08,0,0,0,59,96Z"></path><circle fill="#6AA5A9" cx="53.94" cy="12.01" r="5.08"></circle></svg>