<?xml version="1.0"?>

<svg version="1.1" xmlns="http://www.w3.org/2000/svg" xmlns:xlink="http://www.w3.org/1999/xlink" x="0px" y="0px" viewBox="0 0 192 108" style="enable-background:new 0 0 192 108;" xml:space="preserve">

<g id="FONDO">
</g>
<g id="DISEÑO">
</g>
<g id="Exportar">
&#x9;<path fill="#ffffff" d="M68,54.76l-14.11,0l9.98-9.98c1.2-1.2,1.2-3.14,0-4.34h0c-1.2-1.2-3.14-1.2-4.34,0l-9.98,9.98l0-14.11&#xA;&#x9;&#x9;c0-1.7-1.37-3.07-3.07-3.07c-1.7,0-3.07,1.37-3.07,3.07l0,14.11l-9.98-9.98c-1.2-1.2-3.14-1.2-4.34,0v0c-1.2,1.2-1.2,3.14,0,4.34&#xA;&#x9;&#x9;l9.98,9.98l-14.11,0c-1.7,0-3.07,1.37-3.07,3.07c0,1.7,1.37,3.07,3.07,3.07l14.11,0l0,0c3.53,0,11.24,0,14.82,0l0,0l14.11,0&#xA;&#x9;&#x9;C71.98,60.96,71.98,54.7,68,54.76z"></path>
&#x9;<path fill="#ffffff" d="M49.54,79.35l0-14.11l9.98,9.98c1.2,1.2,3.14,1.2,4.34,0h0c1.2-1.2,1.2-3.14,0-4.34&#xA;&#x9;&#x9;c-1.07-1.05-13.74-13.76-14.32-14.32c-2.32-2.37-5.65-1.08-7.41,1.27c0,0-13.05,13.05-13.05,13.05c-2.85,2.77,1.56,7.2,4.34,4.34&#xA;&#x9;&#x9;c0,0,9.98-9.98,9.98-9.98l0,14.11C43.35,83.34,49.6,83.34,49.54,79.35z"></path>
&#x9;<path fill="#ffffff" d="M49.54,28.65c0.06,3.98-6.2,3.98-6.14,0C43.35,24.66,49.6,24.66,49.54,28.65z"></path>
&#x9;<g>
&#x9;&#x9;<path fill="#ffffff" d="M81,54.76h-3.8V35.79H81v9.49l7.07-9.49h4.31l-5.99,8.01l5.99,10.97h-4.31l-4.17-7.67L81,50.96V54.76z"></path>
&#x9;&#x9;<path fill="#ffffff" d="M107.43,54.76H94.14V35.79h3.8v15.18h9.49V54.76z"></path>
&#x9;&#x9;<path fill="#ffffff" d="M122.41,54.76H109.4V35.79h13.01v3.8h-9.21v3.8h6.23v3.8h-6.23v3.78h9.21V54.76z"></path>
&#x9;&#x9;<path fill="#ffffff" d="M133.6,54.76h-3.78v-5.94c-6.01-1.23-5.99-8.21-5.7-13.03h3.8c0.11,3.08-1.07,9.59,3.8,9.49&#xA;&#x9;&#x9;&#x9;c4.87,0.11,3.7-6.42,3.8-9.49h3.78c0.28,4.83,0.31,11.79-5.69,13.03V54.76z"></path>
&#x9;&#x9;<path fill="#ffffff" d="M145.67,54.76h-3.8V35.79h3.8V54.76z"></path>
&#x9;</g>
&#x9;<g>
&#x9;&#x9;<path fill="#ffffff" d="M135.51,76.44l-0.05-16.81c0.06-2.3-3.2-3.18-4.31-1.18c0,0-6.23,10.51-6.23,10.51c-0.06,0.1-0.21,0.1-0.27,0&#xA;&#x9;&#x9;&#x9;c-1.17-1.16-6.12-12.21-8.33-11.64c-1.29-0.02-2.35,1.03-2.35,2.32v16.8h4.15c0.37-0.26-1-11.7,1.11-9.41&#xA;&#x9;&#x9;&#x9;c5.83,10.13,5.39,9.5,11.01-0.21c2.1-2.36,0.77,9.42,1.13,9.62H135.51z"></path>
&#x9;&#x9;<g>
&#x9;&#x9;&#x9;<path fill="#ffffff" d="M90.21,76.44H77.21V57.47h13.01v3.8H81v3.8h6.23v3.8H81v3.78h9.21V76.44z"></path>
&#x9;&#x9;&#x9;<path fill="#ffffff" d="M106.16,76.44H92.87V57.47h3.8v15.18h9.49V76.44z"></path>
&#x9;&#x9;&#x9;<path fill="#ffffff" d="M111.93,76.44h-3.8V57.47h3.8V76.44z"></path>
&#x9;&#x9;&#x9;<path fill="#ffffff" d="M152.63,76.44h-3.8v-3.8h-7.59v3.8h-3.78c0.22-6.15-2.15-19.17,7.58-18.97&#xA;&#x9;&#x9;&#x9;&#x9;C154.77,57.25,152.43,70.3,152.63,76.44z M148.83,68.86c0.17-2.89,0.29-7.67-3.8-7.59c-4.09-0.08-3.97,4.71-3.8,7.59H148.83z"></path>
&#x9;&#x9;&#x9;<path fill="#ffffff" d="M158.81,76.44h-3.8V57.47c1.57,0.11,8.22-0.25,9.61,0.27c6.2,1.5,7.56,10.52,2.02,13.74l2.1,4.96h-4.04&#xA;&#x9;&#x9;&#x9;&#x9;l-1.65-3.82l-4.25,0.03V76.44z M158.81,61.26v7.59c2.89,0.17,7.66,0.29,7.58-3.8C166.47,60.98,161.69,61.09,158.81,61.26z"></path>
&#x9;&#x9;</g>
&#x9;</g>
</g>
</svg>