<?xml version="1.0"?>

<svg version="1.1" xmlns="http://www.w3.org/2000/svg" xmlns:xlink="http://www.w3.org/1999/xlink" x="0px" y="0px" viewBox="0 0 192 108" style="enable-background:new 0 0 192 108;" xml:space="preserve">

<g id="FONDO">
</g>
<g id="DISEÑO">
</g>
<g id="Exportar">
&#x9;<path fill="#45625D" d="M65.08,54.84l-15.59,0l11.02-11.02c1.32-1.32,1.32-3.47,0-4.79h0c-1.32-1.32-3.47-1.32-4.79,0L44.7,50.05&#xA;&#x9;&#x9;l0-15.59c0-1.87-1.52-3.39-3.39-3.39c-1.87,0-3.39,1.52-3.39,3.39l0,15.59L26.9,39.03c-1.32-1.32-3.47-1.32-4.79,0v0&#xA;&#x9;&#x9;c-1.32,1.32-1.32,3.47,0,4.79l11.02,11.02l-15.59,0c-1.87,0-3.39,1.52-3.39,3.39c0,1.87,1.52,3.39,3.39,3.39l15.59,0l0,0&#xA;&#x9;&#x9;c3.9,0,12.41,0,16.37,0l0,0l15.59,0C69.48,61.68,69.48,54.78,65.08,54.84z"></path>
&#x9;<path fill="#6AA5A9" d="M44.7,82l0-15.59l11.02,11.02c1.32,1.32,3.47,1.32,4.79,0h0c1.32-1.32,1.32-3.47,0-4.79&#xA;&#x9;&#x9;c-1.18-1.16-15.17-15.19-15.81-15.81c-2.56-2.62-6.24-1.2-8.18,1.4c0,0-14.41,14.41-14.41,14.41c-3.15,3.06,1.72,7.95,4.79,4.79&#xA;&#x9;&#x9;c0,0,11.02-11.02,11.02-11.02l0,15.59C37.86,86.4,44.76,86.4,44.7,82z"></path>
&#x9;<path fill="#6AA5A9" d="M44.7,26c0.06,4.4-6.84,4.4-6.78,0C37.86,21.6,44.76,21.6,44.7,26z"></path>
&#x9;<g>
&#x9;&#x9;<g>
&#x9;&#x9;&#x9;<path fill="#45625D" d="M79.44,54.84h-4.19V33.89h4.19v10.48l7.8-10.48h4.76l-6.62,8.84l6.62,12.11h-4.76l-4.6-8.47l-3.2,4.28V54.84&#xA;&#x9;&#x9;&#x9;&#x9;z"></path>
&#x9;&#x9;&#x9;<path fill="#45625D" d="M108.62,54.84H93.95V33.89h4.19v16.76h10.48V54.84z"></path>
&#x9;&#x9;&#x9;<path fill="#45625D" d="M125.16,54.84H110.8V33.89h14.36v4.19h-10.17v4.19h6.88v4.19h-6.88v4.18h10.17V54.84z"></path>
&#x9;&#x9;&#x9;<path fill="#45625D" d="M137.52,54.84h-4.18v-6.56c-6.64-1.36-6.61-9.06-6.3-14.39h4.19c0.12,3.4-1.19,10.58,4.19,10.48&#xA;&#x9;&#x9;&#x9;&#x9;c5.37,0.12,4.08-7.09,4.19-10.48h4.18c0.31,5.33,0.35,13.02-6.28,14.39V54.84z"></path>
&#x9;&#x9;&#x9;<path fill="#45625D" d="M150.85,54.84h-4.19V33.89h4.19V54.84z"></path>
&#x9;&#x9;</g>
&#x9;</g>
&#x9;<g>
&#x9;&#x9;<path fill="#6AA5A9" d="M139.63,78.78l-0.05-18.56c0.07-2.53-3.54-3.51-4.76-1.3c0,0-6.88,11.6-6.88,11.6c-0.07,0.11-0.23,0.12-0.3,0&#xA;&#x9;&#x9;&#x9;c-1.29-1.28-6.76-13.48-9.2-12.86c-1.43-0.02-2.6,1.13-2.6,2.56v18.55h4.58c0.41-0.29-1.1-12.92,1.22-10.39&#xA;&#x9;&#x9;&#x9;c6.44,11.19,5.95,10.49,12.16-0.23c2.32-2.61,0.85,10.41,1.25,10.62H139.63z"></path>
&#x9;&#x9;<g>
&#x9;&#x9;&#x9;<path fill="#6AA5A9" d="M89.61,78.78H75.25V57.83h14.36v4.19H79.44v4.19h6.88v4.19h-6.88v4.18h10.17V78.78z"></path>
&#x9;&#x9;&#x9;<path fill="#6AA5A9" d="M107.22,78.78H92.55V57.83h4.19v16.76h10.48V78.78z"></path>
&#x9;&#x9;&#x9;<path fill="#6AA5A9" d="M113.59,78.78h-4.19V57.83h4.19V78.78z"></path>
&#x9;&#x9;&#x9;<path fill="#6AA5A9" d="M158.53,78.78h-4.19v-4.19h-8.39v4.19h-4.18c0.24-6.8-2.38-21.17,8.37-20.95&#xA;&#x9;&#x9;&#x9;&#x9;C160.9,57.59,158.31,72,158.53,78.78z M154.34,70.41c0.19-3.19,0.32-8.47-4.19-8.39c-4.51-0.09-4.39,5.2-4.19,8.39H154.34z"></path>
&#x9;&#x9;&#x9;<path fill="#6AA5A9" d="M165.36,78.78h-4.19V57.83c1.73,0.12,9.08-0.28,10.61,0.3c6.85,1.66,8.34,11.62,2.24,15.17l2.32,5.48h-4.46&#xA;&#x9;&#x9;&#x9;&#x9;l-1.83-4.22l-4.69,0.03V78.78z M165.36,62.02v8.39c3.19,0.19,8.46,0.32,8.37-4.19C173.82,61.71,168.54,61.83,165.36,62.02z"></path>
&#x9;&#x9;</g>
&#x9;</g>
</g>
</svg>